P3
33 33
255
150 201 240
160 210 247
160 210 247
150 201 240
140 192 234
150 201 240
140 192 234
132 184 227
113 171 216
132 184 227
140 192 234
140 192 234
140 192 234
140 192 234
140 192 234
140 192 234
140 192 234
172 218 250
184 227 255
197 235 255
197 235 255
216 242 254
172 208 165
167 197 142
209 215 171
189 204 150
189 204 150
209 215 171
238 235 191
224 228 180
238 235 191
231 224 182
210 202 157
160 210 247
160 210 247
160 210 247
150 201 240
150 201 240
150 201 240
150 201 240
140 192 234
132 184 227
132 184 227
140 192 234
140 192 234
140 192 234
140 192 234
140 192 234
140 192 234
172 218 250
184 227 255
197 235 255
197 235 255
197 235 255
216 242 254
147 191 139
167 197 142
189 204 150
189 204 150
167 197 142
189 204 150
209 215 171
224 228 180
224 228 180
238 235 191
231 224 182
160 210 247
172 218 250
160 210 247
150 201 240
160 210 247
160 210 247
150 201 240
150 201 240
132 184 227
140 192 234
140 192 234
140 192 234
140 192 234
150 201 240
140 192 234
140 192 234
197 235 255
197 235 255
184 227 255
197 235 255
197 235 255
172 208 165
167 197 142
167 197 142
189 204 150
167 197 142
167 197 142
167 197 142
189 204 150
189 204 150
224 228 180
238 235 191
231 224 182
184 227 255
172 218 250
172 218 250
160 210 247
160 210 247
160 210 247
160 210 247
150 201 240
150 201 240
150 201 240
150 201 240
140 192 234
150 201 240
150 201 240
150 201 240
140 192 234
197 235 255
197 235 255
197 235 255
197 235 255
216 242 254
172 208 165
147 191 139
167 197 142
167 197 142
167 197 142
167 197 142
167 197 142
189 204 150
189 204 150
189 204 150
209 215 171
224 228 180
216 242 254
197 235 255
197 235 255
184 227 255
150 201 240
160 210 247
150 201 240
150 201 240
150 201 240
150 201 240
150 201 240
150 201 240
140 192 234
150 201 240
150 201 240
150 201 240
216 242 254
197 235 255
197 235 255
197 235 255
216 242 254
172 208 165
147 191 139
167 197 142
147 191 139
167 197 142
189 204 150
167 197 142
189 204 150
189 204 150
189 204 150
189 204 150
209 215 171
197 235 255
197 235 255
197 235 255
184 227 255
172 218 250
160 210 247
160 210 247
160 210 247
150 201 240
150 201 240
150 201 240
150 201 240
150 201 240
140 192 234
132 184 227
132 184 227
197 235 255
197 235 255
197 235 255
197 235 255
197 235 255
172 208 165
147 191 139
147 191 139
167 197 142
167 197 142
167 197 142
167 197 142
167 197 142
167 197 142
167 197 142
167 197 142
189 204 150
216 242 254
216 242 254
216 242 254
184 227 255
160 210 247
160 210 247
160 210 247
160 210 247
150 201 240
160 210 247
150 201 240
160 210 247
160 210 247
132 184 227
132 184 227
132 184 227
216 242 254
197 235 255
197 235 255
197 235 255
197 235 255
172 208 165
147 191 139
147 191 139
189 204 150
167 197 142
167 197 142
167 197 142
167 197 142
167 197 142
167 197 142
167 197 142
189 204 150
172 208 165
216 242 254
216 242 254
184 227 255
172 218 250
160 210 247
160 210 247
160 210 247
160 210 247
160 210 247
160 210 247
160 210 247
160 210 247
132 184 227
132 184 227
132 184 227
197 235 255
197 235 255
197 235 255
197 235 255
197 235 255
216 242 254
172 208 165
147 191 139
189 204 150
189 204 150
167 197 142
167 197 142
167 197 142
167 197 142
167 197 142
167 197 142
167 197 142
167 197 142
172 208 165
172 208 165
197 235 255
184 227 255
184 227 255
184 227 255
172 218 250
160 210 247
160 210 247
160 210 247
160 210 247
140 192 234
132 184 227
121 178 222
132 184 227
184 227 255
197 235 255
216 242 254
216 242 254
172 208 165
172 208 165
167 197 142
167 197 142
209 215 171
189 204 150
189 204 150
189 204 150
209 215 171
167 197 142
167 197 142
167 197 142
167 197 142
172 208 165
172 208 165
197 235 255
197 235 255
197 235 255
184 227 255
172 218 250
172 218 250
172 218 250
172 218 250
184 227 255
184 227 255
172 218 250
172 218 250
172 218 250
160 210 247
184 227 255
197 235 255
197 235 255
216 242 254
216 242 254
172 208 165
147 191 139
167 197 142
167 197 142
209 215 171
209 215 171
209 215 171
189 204 150
189 204 150
167 197 142
167 197 142
167 197 142
172 208 165
216 242 254
197 235 255
197 235 255
197 235 255
184 227 255
160 210 247
172 218 250
172 218 250
172 218 250
172 218 250
184 227 255
172 218 250
172 218 250
172 218 250
172 218 250
172 218 250
184 227 255
197 235 255
197 235 255
216 242 254
216 242 254
172 208 165
147 191 139
167 197 142
189 204 150
189 204 150
189 204 150
189 204 150
189 204 150
209 215 171
167 197 142
167 197 142
172 208 165
172 208 165
216 242 254
197 235 255
197 235 255
184 227 255
184 227 255
172 218 250
172 218 250
172 218 250
172 218 250
172 218 250
172 218 250
172 218 250
184 227 255
184 227 255
184 227 255
184 227 255
197 235 255
197 235 255
216 242 254
216 242 254
216 242 254
172 208 165
147 191 139
209 215 171
209 215 171
209 215 171
209 215 171
209 215 171
209 215 171
189 204 150
189 204 150
167 197 142
216 242 254
197 235 255
197 235 255
184 227 255
184 227 255
184 227 255
172 218 250
160 210 247
172 218 250
160 210 247
172 218 250
160 210 247
172 218 250
184 227 255
184 227 255
172 218 250
197 235 255
216 242 254
197 235 255
216 242 254
216 242 254
172 208 165
172 208 165
147 191 139
189 204 150
189 204 150
209 215 171
224 228 180
209 215 171
209 215 171
209 215 171
224 228 180
172 208 165
216 242 254
197 235 255
197 235 255
197 235 255
184 227 255
184 227 255
172 218 250
172 218 250
172 218 250
172 218 250
172 218 250
172 218 250
172 218 250
172 218 250
172 218 250
184 227 255
197 235 255
197 235 255
197 235 255
197 235 255
216 242 254
172 208 165
147 191 139
147 191 139
209 215 171
189 204 150
209 215 171
209 215 171
224 228 180
224 228 180
224 228 180
224 228 180
172 208 165
172 208 165
216 242 254
197 235 255
197 235 255
184 227 255
172 218 250
172 218 250
172 218 250
184 227 255
184 227 255
184 227 255
172 218 250
172 218 250
172 218 250
172 218 250
184 227 255
184 227 255
184 227 255
197 235 255
197 235 255
216 242 254
147 191 139
147 191 139
189 204 150
209 215 171
209 215 171
209 215 171
224 228 180
209 215 171
224 228 180
224 228 180
238 235 191
147 191 139
147 191 139
172 208 165
216 242 254
197 235 255
197 235 255
197 235 255
172 218 250
172 218 250
172 218 250
172 218 250
184 227 255
184 227 255
172 218 250
172 218 250
172 218 250
172 218 250
172 218 250
172 218 250
184 227 255
197 235 255
216 242 254
172 208 165
167 197 142
189 204 150
209 215 171
209 215 171
209 215 171
209 215 171
209 215 171
209 215 171
224 228 180
238 235 191
209 215 171
167 197 142
147 191 139
172 208 165
216 242 254
197 235 255
184 227 255
197 235 255
184 227 255
197 235 255
197 235 255
197 235 255
197 235 255
184 227 255
172 218 250
172 218 250
150 201 240
160 210 247
160 210 247
184 227 255
184 227 255
216 242 254
167 197 142
189 204 150
224 228 180
209 215 171
209 215 171
209 215 171
209 215 171
209 215 171
209 215 171
224 228 180
231 224 182
167 197 142
167 197 142
147 191 139
172 208 165
197 235 255
197 235 255
197 235 255
197 235 255
197 235 255
197 235 255
197 235 255
197 235 255
197 235 255
184 227 255
172 218 250
172 218 250
172 218 250
184 227 255
197 235 255
197 235 255
216 242 254
172 208 165
147 191 139
147 191 139
167 197 142
167 197 142
189 204 150
189 204 150
209 215 171
209 215 171
224 228 180
224 228 180
224 228 180
167 197 142
167 197 142
167 197 142
147 191 139
216 242 254
216 242 254
172 208 165
197 235 255
197 235 255
197 235 255
216 242 254
197 235 255
184 227 255
184 227 255
172 218 250
172 218 250
172 218 250
184 227 255
184 227 255
197 235 255
216 242 254
216 242 254
172 208 165
172 208 165
167 197 142
147 191 139
167 197 142
167 197 142
189 204 150
189 204 150
209 215 171
209 215 171
189 204 150
167 197 142
167 197 142
147 191 139
147 191 139
172 208 165
172 208 165
172 208 165
216 242 254
216 242 254
216 242 254
216 242 254
216 242 254
197 235 255
197 235 255
184 227 255
184 227 255
184 227 255
197 235 255
197 235 255
197 235 255
216 242 254
216 242 254
216 242 254
216 242 254
147 191 139
147 191 139
147 191 139
147 191 139
167 197 142
189 204 150
189 204 150
167 197 142
167 197 142
189 204 150
189 204 150
189 204 150
167 197 142
147 191 139
172 208 165
172 208 165
172 208 165
172 208 165
216 242 254
216 242 254
216 242 254
172 208 165
197 235 255
184 227 255
184 227 255
172 218 250
216 242 254
172 208 165
216 242 254
216 242 254
216 242 254
216 242 254
197 235 255
147 191 139
172 208 165
147 191 139
147 191 139
167 197 142
167 197 142
189 204 150
167 197 142
147 191 139
189 204 150
189 204 150
167 197 142
167 197 142
147 191 139
147 191 139
147 191 139
147 191 139
172 208 165
172 208 165
172 208 165
172 208 165
172 208 165
197 235 255
197 235 255
197 235 255
197 235 255
216 242 254
216 242 254
216 242 254
216 242 254
197 235 255
197 235 255
197 235 255
172 208 165
172 208 165
172 208 165
172 208 165
172 208 165
172 208 165
172 208 165
172 208 165
216 242 254
209 215 171
209 215 171
189 204 150
167 197 142
167 197 142
147 191 139
147 191 139
147 191 139
167 197 142
167 197 142
167 197 142
172 208 165
172 208 165
216 242 254
216 242 254
197 235 255
197 235 255
216 242 254
172 208 165
216 242 254
216 242 254
197 235 255
197 235 255
197 235 255
216 242 254
216 242 254
216 242 254
216 242 254
216 242 254
216 242 254
172 208 165
216 242 254
197 235 255
224 228 180
224 228 180
209 215 171
189 204 150
167 197 142
167 197 142
167 197 142
167 197 142
167 197 142
167 197 142
167 197 142
147 191 139
172 208 165
216 242 254
197 235 255
197 235 255
184 227 255
216 242 254
216 242 254
216 242 254
216 242 254
197 235 255
197 235 255
197 235 255
216 242 254
216 242 254
216 242 254
216 242 254
216 242 254
216 242 254
216 242 254
197 235 255
197 235 255
222 214 163
238 235 191
224 228 180
209 215 171
189 204 150
189 204 150
209 215 171
209 215 171
209 215 171
189 204 150
189 204 150
147 191 139
147 191 139
216 242 254
197 235 255
184 227 255
160 210 247
197 235 255
216 242 254
216 242 254
147 191 139
216 242 254
197 235 255
197 235 255
216 242 254
216 242 254
172 208 165
216 242 254
172 208 165
216 242 254
197 235 255
197 235 255
184 227 255
238 235 191
238 235 191
224 228 180
209 215 171
189 204 150
189 204 150
209 215 171
209 215 171
209 215 171
167 197 142
172 208 165
172 208 165
197 235 255
197 235 255
197 235 255
184 227 255
184 227 255
197 235 255
197 235 255
216 242 254
216 242 254
197 235 255
197 235 255
197 235 255
197 235 255
216 242 254
197 235 255
197 235 255
184 227 255
184 227 255
184 227 255
184 227 255
184 227 255
224 228 180
224 228 180
238 235 191
209 215 171
209 215 171
209 215 171
209 215 171
209 215 171
224 228 180
167 197 142
167 197 142
172 208 165
197 235 255
197 235 255
197 235 255
197 235 255
184 227 255
197 235 255
197 235 255
197 235 255
197 235 255
197 235 255
197 235 255
197 235 255
216 242 254
197 235 255
216 242 254
197 235 255
172 218 250
184 227 255
184 227 255
184 227 255
160 210 247
224 228 180
224 228 180
224 228 180
209 215 171
209 215 171
209 215 171
209 215 171
209 215 171
224 228 180
167 197 142
167 197 142
147 191 139
216 242 254
216 242 254
216 242 254
197 235 255
197 235 255
197 235 255
197 235 255
197 235 255
197 235 255
197 235 255
197 235 255
197 235 255
197 235 255
197 235 255
197 235 255
197 235 255
172 218 250
172 218 250
184 227 255
172 218 250
160 210 247
224 228 180
209 215 171
209 215 171
189 204 150
209 215 171
209 215 171
209 215 171
209 215 171
238 235 191
167 197 142
167 197 142
147 191 139
167 197 142
172 208 165
172 208 165
216 242 254
216 242 254
197 235 255
172 208 165
216 242 254
172 208 165
216 242 254
216 242 254
197 235 255
172 218 250
184 227 255
160 210 247
172 218 250
160 210 247
172 218 250
172 218 250
172 218 250
150 201 240
209 215 171
209 215 171
189 204 150
189 204 150
189 204 150
189 204 150
189 204 150
209 215 171
224 228 180
167 197 142
147 191 139
147 191 139
147 191 139
147 191 139
216 242 254
216 242 254
216 242 254
197 235 255
216 242 254
216 242 254
216 242 254
197 235 255
197 235 255
184 227 255
184 227 255
184 227 255
172 218 250
172 218 250
172 218 250
172 218 250
172 218 250
160 210 247
160 210 247
224 228 180
209 215 171
189 204 150
189 204 150
189 204 150
167 197 142
189 204 150
209 215 171
224 228 180
167 197 142
147 191 139
147 191 139
147 191 139
172 208 165
172 208 165
216 242 254
172 208 165
197 235 255
216 242 254
197 235 255
197 235 255
184 227 255
184 227 255
184 227 255
172 218 250
172 218 250
160 210 247
172 218 250
172 218 250
172 218 250
160 210 247
160 210 247
150 201 240
209 215 171
209 215 171
189 204 150
189 204 150
167 197 142
167 197 142
167 197 142
209 215 171
209 215 171
189 204 150
167 197 142
147 191 139
147 191 139
172 208 165
216 242 254
216 242 254
216 242 254
197 235 255
197 235 255
197 235 255
197 235 255
184 227 255
184 227 255
184 227 255
172 218 250
172 218 250
172 218 250
172 218 250
172 218 250
172 218 250
172 218 250
172 218 250
172 218 250
209 215 171
209 215 171
209 215 171
189 204 150
167 197 142
167 197 142
189 204 150
209 215 171
224 228 180
189 204 150
189 204 150
167 197 142
167 197 142
172 208 165
216 242 254
197 235 255
197 235 255
197 235 255
184 227 255
197 235 255
184 227 255
184 227 255
184 227 255
184 227 255
160 210 247
172 218 250
172 218 250
172 218 250
172 218 250
172 218 250
172 218 250
172 218 250
172 218 250
